<svg xmlns="http://www.w3.org/2000/svg" viewBox="0 0 800 450" role="img" aria-label="Data Science with Real-Time Business Cases">
  <defs>
    <linearGradient id="bg" x1="0%" y1="0%" x2="100%" y2="100%">
      <stop offset="0%" style="stop-color:#f8fafc"/>
      <stop offset="100%" style="stop-color:#e2e8f0"/>
    </linearGradient>
  </defs>
  <rect width="800" height="450" fill="url(#bg)"/>
  <rect x="60" y="80" width="320" height="200" rx="12" fill="#fff" stroke="#cbd5e1" stroke-width="2"/>
  <rect x="80" y="110" width="80" height="120" fill="#1e293b" opacity="0.85" rx="4"/>
  <rect x="170" y="140" width="60" height="90" fill="#334155" opacity="0.7" rx="4"/>
  <rect x="240" y="120" width="100" height="110" fill="#0f172a" opacity="0.9" rx="4"/>
  <polyline points="80,250 200,180 300,210 380,150" fill="none" stroke="#0f172a" stroke-width="3"/>
  <circle cx="380" cy="150" r="6" fill="#0f172a"/>
  <rect x="420" y="100" width="300" height="240" rx="12" fill="#fff" stroke="#cbd5e1" stroke-width="2"/>
  <text x="440" y="140" fill="#0f172a" font-family="system-ui,sans-serif" font-size="14" font-weight="600">Business Cases</text>
  <rect x="440" y="160" width="260" height="12" rx="4" fill="#e2e8f0"/>
  <rect x="440" y="185" width="200" height="12" rx="4" fill="#94a3b8"/>
  <rect x="440" y="210" width="230" height="12" rx="4" fill="#cbd5e1"/>
  <rect x="440" y="250" width="120" height="36" rx="8" fill="#0f172a"/>
  <text x="455" y="273" fill="#fff" font-family="system-ui,sans-serif" font-size="13" font-weight="700">Python · SQL · ML</text>
  <text x="60" y="360" fill="#0f172a" font-family="system-ui,sans-serif" font-size="28" font-weight="800">Data Science</text>
  <text x="60" y="395" fill="#475569" font-family="system-ui,sans-serif" font-size="16">Real-Time Business Cases · EduGram</text>
</svg>
