<svg xmlns="http://www.w3.org/2000/svg" viewBox="0 0 800 450" role="img" aria-label="Startup and Entrepreneurship Studio">
  <defs>
    <linearGradient id="bg" x1="0%" y1="0%" x2="100%" y2="100%">
      <stop offset="0%" style="stop-color:#fffbeb"/>
      <stop offset="100%" style="stop-color:#f1f5f9"/>
    </linearGradient>
  </defs>
  <rect width="800" height="450" fill="url(#bg)"/>
  <path d="M120 320 L200 180 L280 240 L360 140 L440 200 L520 120 L600 200" fill="none" stroke="#0f172a" stroke-width="3" opacity="0.2"/>
  <circle cx="600" cy="200" r="8" fill="#0f172a" opacity="0.4"/>
  <rect x="80" y="100" width="280" height="200" rx="12" fill="#fff" stroke="#0f172a" stroke-width="2"/>
  <text x="100" y="135" fill="#0f172a" font-family="system-ui,sans-serif" font-size="11" font-weight="700">BUSINESS MODEL</text>
  <rect x="100" y="150" width="90" height="50" rx="6" fill="#fef3c7" stroke="#fcd34d"/>
  <rect x="200" y="150" width="90" height="50" rx="6" fill="#f8fafc" stroke="#cbd5e1"/>
  <rect x="100" y="210" width="190" height="40" rx="6" fill="#0f172a" opacity="0.06"/>
  <rect x="400" y="90" width="300" height="260" rx="12" fill="#fff" stroke="#0f172a" stroke-width="2"/>
  <text x="420" y="125" fill="#0f172a" font-family="system-ui,sans-serif" font-size="11" font-weight="700">PITCH DECK</text>
  <rect x="420" y="140" width="260" height="12" rx="3" fill="#0f172a" opacity="0.15"/>
  <rect x="420" y="165" width="200" height="8" rx="2" fill="#e2e8f0"/>
  <rect x="420" y="185" width="240" height="8" rx="2" fill="#e2e8f0"/>
  <rect x="420" y="220" width="120" height="36" rx="18" fill="#0f172a"/>
  <text x="448" y="243" fill="#fff" font-family="system-ui,sans-serif" font-size="12" font-weight="700">Launch</text>
  <text x="60" y="360" fill="#0f172a" font-family="system-ui,sans-serif" font-size="26" font-weight="800">Startup Studio</text>
  <text x="60" y="392" fill="#64748b" font-family="system-ui,sans-serif" font-size="15">Entrepreneurship · EduGram</text>
</svg>
